<?xml version="1.0" standalone="no"?>
<!DOCTYPE svg PUBLIC "-//W3C//DTD SVG 20010904//EN"
 "http://www.w3.org/TR/2001/REC-SVG-20010904/DTD/svg10.dtd">
<svg version="1.0" xmlns="http://www.w3.org/2000/svg"
 width="80" height="80" viewBox="0 0 1280.000000 989.000000"
 preserveAspectRatio="xMidYMid meet">
<g transform="translate(0.000000,989.000000) scale(0.100000,-0.100000)"
fill="#000000" stroke="none">
<path d="M6720 9698 c-26 -14 -57 -41 -75 -66 l-30 -44 -5 -646 c-4 -534 -7
-647 -18 -644 -8 1 -180 163 -383 360 -203 196 -384 365 -402 375 -50 28 -153
20 -201 -16 -75 -58 -98 -164 -53 -244 13 -24 229 -240 522 -523 275 -265 508
-491 518 -502 16 -19 17 -54 17 -434 0 -245 -4 -415 -9 -419 -5 -3 -110 90
-233 206 -123 116 -236 220 -253 230 -89 55 -212 22 -264 -72 -29 -50 -30
-136 -4 -181 10 -17 106 -114 213 -217 107 -102 275 -261 373 -354 l177 -169
0 -454 c0 -362 -3 -454 -13 -454 -7 0 -147 138 -312 308 -164 169 -488 500
-719 737 l-419 430 7 270 c4 148 11 405 16 570 16 517 16 576 -2 610 -9 17
-29 42 -45 57 -98 93 -276 47 -313 -81 -4 -16 -13 -200 -19 -408 -15 -522 -20
-603 -36 -603 -7 0 -229 222 -494 494 -273 280 -496 501 -515 510 -19 9 -58
16 -88 16 -138 0 -226 -140 -169 -266 13 -27 172 -198 490 -524 259 -266 471
-490 471 -497 0 -16 34 -16 -549 2 -437 14 -483 14 -518 0 -50 -21 -82 -51
-104 -100 -53 -116 14 -242 142 -265 30 -6 367 -19 749 -30 l695 -19 115 -118
c902 -923 1320 -1355 1315 -1363 -7 -11 -902 -14 -929 -4 -8 3 -172 173 -362
376 -225 240 -359 375 -380 384 -162 68 -327 -95 -255 -251 10 -23 107 -135
224 -260 114 -121 207 -226 207 -232 0 -10 -89 -13 -413 -13 l-414 0 -504 517
c-549 562 -547 561 -641 550 -100 -12 -168 -87 -168 -186 0 -28 6 -66 14 -84
7 -18 175 -198 374 -402 199 -203 360 -374 358 -380 -2 -6 -226 -12 -632 -15
-599 -5 -631 -6 -661 -24 -55 -34 -93 -103 -93 -170 0 -40 30 -105 61 -133 59
-54 51 -53 701 -53 332 0 609 -4 617 -9 7 -5 12 -13 10 -19 -2 -5 -168 -178
-368 -383 -208 -213 -369 -386 -377 -405 -18 -42 -18 -115 0 -157 40 -97 170
-142 266 -92 15 8 255 248 534 534 l508 521 414 0 c356 0 414 -2 414 -15 0 -8
-94 -113 -209 -233 -115 -121 -217 -235 -227 -253 -9 -19 -17 -56 -17 -85 0
-141 147 -232 277 -173 14 7 182 176 372 376 191 200 355 368 366 374 29 15
988 0 988 -15 0 -7 -331 -355 -736 -774 l-735 -762 -707 -2 c-695 -3 -708 -3
-747 -24 -58 -30 -96 -96 -96 -167 0 -30 6 -68 15 -85 21 -42 79 -89 123 -101
24 -7 216 -11 526 -11 411 0 488 -2 485 -14 -2 -7 -212 -230 -467 -494 -255
-264 -472 -493 -482 -509 -39 -59 -33 -149 13 -216 49 -69 169 -92 245 -47 22
14 241 232 485 485 244 253 452 466 461 473 9 8 21 11 27 7 7 -4 10 -174 10
-521 0 -559 -1 -553 56 -606 38 -35 74 -48 135 -48 52 0 111 24 141 57 49 53
48 44 48 818 l0 725 83 88 c281 301 1353 1402 1364 1402 11 0 13 -86 13 -457
l0 -458 -371 -349 c-203 -192 -377 -363 -386 -380 -23 -44 -21 -135 3 -176 33
-57 87 -93 148 -98 29 -2 70 1 90 8 24 8 108 80 263 226 125 118 233 214 240
214 10 0 13 -80 13 -414 l0 -413 -521 -504 c-312 -302 -529 -519 -540 -541
-21 -41 -25 -111 -8 -155 23 -63 109 -122 176 -123 77 0 105 22 492 397 206
200 381 363 388 363 10 0 13 -127 15 -629 l3 -629 30 -44 c80 -115 238 -115
320 1 l30 43 3 629 c2 449 6 629 14 629 6 0 174 -162 375 -361 399 -395 413
-406 506 -395 98 11 167 88 167 185 0 28 -6 66 -14 84 -8 19 -221 237 -530
541 l-516 508 0 414 c0 325 3 414 13 414 6 0 114 -96 239 -214 245 -231 261
-242 354 -234 127 11 205 153 149 271 -10 23 -153 164 -386 384 l-369 348 0
462 c0 255 4 463 8 463 10 0 242 -235 802 -810 217 -223 453 -465 524 -537
l130 -133 -18 -627 c-25 -848 -25 -780 2 -830 57 -108 204 -133 296 -52 61 53
64 74 76 499 14 517 19 602 35 598 8 -2 129 -122 271 -268 504 -518 699 -713
731 -726 82 -35 186 -2 234 74 35 55 40 137 12 190 -10 18 -226 246 -480 506
-255 261 -463 479 -463 484 0 6 6 12 13 14 6 2 241 -3 521 -11 l508 -15 45 24
c112 59 136 206 49 299 -17 18 -46 40 -63 47 -25 11 -197 19 -740 35 -390 11
-718 22 -730 25 -12 2 -276 265 -599 596 -318 326 -652 668 -742 760 -90 92
-161 172 -157 177 7 12 873 14 912 3 13 -4 176 -171 364 -372 188 -201 357
-375 378 -387 43 -27 136 -31 179 -9 32 17 74 61 92 95 19 36 17 120 -3 161
-10 19 -114 138 -232 264 -119 126 -212 233 -207 238 4 4 194 7 422 6 l414 -3
494 -515 c517 -539 552 -570 631 -570 49 0 118 37 155 82 40 51 47 126 18 189
-13 29 -97 124 -247 279 -465 483 -500 521 -484 531 9 6 233 8 624 3 445 -5
621 -3 652 5 168 46 192 274 38 359 -27 15 -99 18 -670 22 -479 4 -640 8 -640
17 0 6 163 178 363 381 226 232 368 384 377 406 34 81 3 177 -73 231 -36 25
-53 30 -100 29 -33 0 -70 -7 -87 -16 -16 -9 -260 -247 -542 -529 l-512 -514
-403 3 c-222 2 -407 7 -412 12 -5 5 71 92 175 201 101 105 201 211 221 236 82
97 57 233 -53 298 -42 25 -131 26 -175 2 -17 -9 -188 -181 -379 -382 l-348
-365 -436 0 c-240 0 -442 4 -450 9 -7 5 -12 13 -10 19 2 5 301 317 664 693
363 375 683 707 710 736 l51 53 703 0 c782 0 742 -3 801 68 74 90 47 235 -53
290 -29 15 -81 17 -541 22 -346 3 -510 8 -513 16 -2 5 213 234 477 508 264
274 487 510 495 526 23 45 19 138 -8 182 -53 87 -153 120 -242 79 -29 -13
-176 -159 -514 -509 -261 -271 -478 -492 -482 -492 -16 0 -19 72 -19 551 l0
505 -29 46 c-34 53 -97 88 -157 88 -74 -1 -158 -57 -183 -123 -8 -19 -11 -267
-11 -759 l0 -730 -258 -266 c-142 -147 -465 -481 -717 -742 -252 -261 -464
-476 -472 -478 -11 -3 -13 80 -13 461 l0 465 358 337 c196 186 368 356 382
378 50 83 24 193 -59 252 -36 26 -52 30 -104 30 -45 0 -71 -6 -94 -20 -18 -11
-127 -110 -244 -220 -117 -110 -218 -201 -225 -203 -12 -3 -14 67 -14 410 l0
413 509 500 c280 274 519 517 531 538 33 58 25 152 -16 204 -17 21 -46 46 -65
55 -43 23 -130 23 -172 2 -18 -10 -196 -177 -395 -373 -200 -196 -370 -357
-378 -359 -11 -3 -14 100 -16 641 l-3 645 -30 43 c-59 83 -158 110 -245 67z"/>
</g>
</svg>
